# xmcd
# Track frame offsets:
# 150
# 12247
# 24025
# 33787
# 45657
# 58925
# 76820
# 85477
# 96170
# 114670
# 127605
# 141322
#
# Disc length: 2052 seconds
# Revision: 6
# Processed by: cddbd v1.5.2PL0 Copyright (c) Steve Scherf et al.
# Submitted via: VisiTrax 2.11.3.279 - For more info visit www.synapsa.com
#
DISCID=8c08020c
DTITLE=Johnny Cash - Ring Of Fire: The Best Of Johnny Cash
DYEAR=1963
DGENRE=Country
TTITLE0=Johnny Cash - Ring Of Fire
TTITLE1=Johnny Cash - I'd Still Be There
TTITLE2=Johnny Cash - What Do I Care
TTITLE3=Johnny Cash - I Still Miss Someone
TTITLE4=Johnny Cash - Forty Shades Of Green
TTITLE5=Johnny Cash - Were You There (When They Crucified My Lord)
TTITLE6=Johnny Cash - The Rebel - Johnny Yuma
TTITLE7=Johnny Cash - Bonanza!
TTITLE8=Johnny Cash - The Big Battle
TTITLE9=Johnny Cash - Remember The Alamo
TTITLE10=Johnny Cash - Tennessee Flat-Top Box
TTITLE11=Johnny Cash With The Carter Family - (There'll Be) Peace In The Valle
TTITLE11=y (For Me)
EXTD=Columbia/Legacy
EXTT0=
EXTT1=
EXTT2=
EXTT3=
EXTT4=
EXTT5=
EXTT6=
EXTT7=
EXTT8=
EXTT9=
EXTT10=
EXTT11=
PLAYORDER=
